# xmcd CD database file
#
# Track frame offsets:
#	150
#	14880
#	30348
#	48685
#	67054
#	80414
#	98320
#	116933
#	132718
#	144487
#	161791
#	173171
#	186552
#	199302
#
# Disc length: 2818 seconds
#
# Revision: 0
# Processed by: cddbd v1.5.2PL0 Copyright (c) Steve Scherf et al.
# Submitted via: CDex 1.51
#
DISCID=d50b000e
DTITLE=South Mountain - All Roads Lead To South Mountain
DYEAR=2008
DGENRE=Country
TTITLE0=01  cab driver
TTITLE1=02 atta way to go
TTITLE2=03 country boy
TTITLE3=04  faded love
TTITLE4=05 stop right where we are
TTITLE5=06 come on home
TTITLE6=07 one minute
TTITLE7=08 she got the gold mine
TTITLE8=09 mister sandman
TTITLE9=10 natural high
TTITLE10=11 sugarfoot rag
TTITLE11=12 too many pockets on my shirt
TTITLE12=13 you take me for granted
TTITLE13=14 honky tonk merry go round
EXTD=YEAR: 2008
EXTT0=
EXTT1=
EXTT2=
EXTT3=
EXTT4=
EXTT5=
EXTT6=
EXTT7=
EXTT8=
EXTT9=
EXTT10=
EXTT11=
EXTT12=
EXTT13=
PLAYORDER=
